HIERARCHY
ROOT hip
{
  OFFSET -180.713 84.0612 18.0351
  CHANNELS 6 Xposition Yposition Zposition Zrotation Xrotation Yrotation
  JOINT abdomen
  {
    OFFSET 0 20.6881 -0.73152
    CHANNELS 3 Zrotation Xrotation Yrotation
    JOINT chest
    {
      OFFSET 0 11.7043 -0.48768
      CHANNELS 3 Zrotation Xrotation Yrotation
      JOINT neck
      {
        OFFSET 0 22.1894 -2.19456
        CHANNELS 3 Zrotation Xrotation Yrotation
        JOINT head
        {
          OFFSET -0.24384 7.07133 1.2192
          CHANNELS 3 Zrotation Xrotation Yrotation
          JOINT leftEye
          {
            OFFSET 4.14528 8.04674 8.04672
            CHANNELS 3 Zrotation Xrotation Yrotation
            End Site
            {
              OFFSET 1 0 0
            }
          }
          JOINT rightEye
          {
            OFFSET -3.6576 8.04674 8.04672
            CHANNELS 3 Zrotation Xrotation Yrotation
            End Site
            {
              OFFSET 1 0 0
            }
          }
        }
      }
      JOINT rCollar
      {
        OFFSET -2.68224 19.2634 -4.8768
        CHANNELS 3 Zrotation Xrotation Yrotation
        JOINT rShldr
        {
          OFFSET -8.77824 -1.95073 1.46304
          CHANNELS 3 Zrotation Xrotation Yrotation
          JOINT rForeArm
          {
            OFFSET -28.1742 -1.7115 0.48768
            CHANNELS 3 Zrotation Xrotation Yrotation
            JOINT rHand
            {
              OFFSET -22.5879 0.773209 7.07136
              CHANNELS 3 Zrotation Xrotation Yrotation
              JOINT rThumb1
              {
                OFFSET -1.2192 -0.487915 3.41376
                CHANNELS 3 Zrotation Xrotation Yrotation
                JOINT rThumb2
                {
                  OFFSET -3.37035 -0.52449 3.41376
                  CHANNELS 3 Zrotation Xrotation Yrotation
                  End Site
                  {
                    OFFSET -1.78271 -1.18214 1.43049
                  }
                }
              }
              JOINT rIndex1
              {
                OFFSET -7.75947 0.938293 5.60832
                CHANNELS 3 Zrotation Xrotation Yrotation
                JOINT rIndex2
                {
                  OFFSET -2.54057 -0.884171 1.56538
                  CHANNELS 3 Zrotation Xrotation Yrotation
                  End Site
                  {
                    OFFSET -1.62519 -0.234802 1.16502
                  }
                }
              }
              JOINT rMid1
              {
                OFFSET -8.24714 1.18213 3.41376
                CHANNELS 3 Zrotation Xrotation Yrotation
                JOINT rMid2
                {
                  OFFSET -3.10165 -0.590103 1.0647
                  CHANNELS 3 Zrotation Xrotation Yrotation
                  End Site
                  {
                    OFFSET -2.48547 -0.328903 0.83742
                  }
                }
              }
              JOINT rRing1
              {
                OFFSET -8.82822 0.546677 1.51678
                CHANNELS 3 Zrotation Xrotation Yrotation
                JOINT rRing2
                {
                  OFFSET -2.60934 -0.819778 -0.0198488
                  CHANNELS 3 Zrotation Xrotation Yrotation
                  End Site
                  {
                    OFFSET -2.33842 -0.294052 0.168128
                  }
                }
              }
              JOINT rPinky1
              {
                OFFSET -8.27202 -0.0477905 -0.4584
                CHANNELS 3 Zrotation Xrotation Yrotation
                JOINT rPinky2
                {
                  OFFSET -1.82734 -0.647385 -0.700984
                  CHANNELS 3 Zrotation Xrotation Yrotation
                  End Site
                  {
                    OFFSET -1.69225 -0.51767 -0.607171
                  }
                }
              }
            }
          }
        }
      }
      JOINT lCollar
      {
        OFFSET 2.68224 19.2634 -4.8768
        CHANNELS 3 Zrotation Xrotation Yrotation
        JOINT lShldr
        {
          OFFSET 8.77824 -1.95073 1.46304
          CHANNELS 3 Zrotation Xrotation Yrotation
          JOINT lForeArm
          {
            OFFSET 28.1742 -1.7115 0.48768
            CHANNELS 3 Zrotation Xrotation Yrotation
            JOINT lHand
            {
              OFFSET 22.5879 0.773209 7.07136
              CHANNELS 3 Zrotation Xrotation Yrotation
              JOINT lThumb1
              {
                OFFSET 1.2192 -0.487915 3.41376
                CHANNELS 3 Zrotation Xrotation Yrotation
                JOINT lThumb2
                {
                  OFFSET 3.37035 -0.52449 3.41376
                  CHANNELS 3 Zrotation Xrotation Yrotation
                  End Site
                  {
                    OFFSET 1.78271 -1.18214 1.43049
                  }
                }
              }
              JOINT lIndex1
              {
                OFFSET 7.75947 0.938293 5.60832
                CHANNELS 3 Zrotation Xrotation Yrotation
                JOINT lIndex2
                {
                  OFFSET 2.54057 -0.884171 1.56538
                  CHANNELS 3 Zrotation Xrotation Yrotation
                  End Site
                  {
                    OFFSET 1.62519 -0.234802 1.16502
                  }
                }
              }
              JOINT lMid1
              {
                OFFSET 8.24714 1.18213 3.41376
                CHANNELS 3 Zrotation Xrotation Yrotation
                JOINT lMid2
                {
                  OFFSET 3.10165 -0.590103 1.0647
                  CHANNELS 3 Zrotation Xrotation Yrotation
                  End Site
                  {
                    OFFSET 2.48547 -0.328903 0.83742
                  }
                }
              }
              JOINT lRing1
              {
                OFFSET 8.82822 0.546677 1.51678
                CHANNELS 3 Zrotation Xrotation Yrotation
                JOINT lRing2
                {
                  OFFSET 2.60934 -0.819778 -0.0198488
                  CHANNELS 3 Zrotation Xrotation Yrotation
                  End Site
                  {
                    OFFSET 2.33842 -0.294052 0.168128
                  }
                }
              }
              JOINT lPinky1
              {
                OFFSET 8.27202 -0.0477905 -0.4584
                CHANNELS 3 Zrotation Xrotation Yrotation
                JOINT lPinky2
                {
                  OFFSET 1.82734 -0.647385 -0.700984
                  CHANNELS 3 Zrotation Xrotation Yrotation
                  End Site
                  {
                    OFFSET 1.69225 -0.51767 -0.607171
                  }
                }
              }
            }
          }
        }
      }
    }
  }
  JOINT rButtock
  {
    OFFSET -8.77824 4.35084 1.2192
    CHANNELS 3 Zrotation Xrotation Yrotation
    JOINT rThigh
    {
      OFFSET 0 -1.70687 -2.19456
      CHANNELS 3 Zrotation Xrotation Yrotation
      JOINT rShin
      {
        OFFSET 0 -36.8199 0.73152
        CHANNELS 3 Zrotation Xrotation Yrotation
        JOINT rFoot
        {
          OFFSET 0.73152 -45.1104 -5.12064
          CHANNELS 3 Zrotation Xrotation Yrotation
          End Site
          {
            OFFSET -1.1221 -3.69964 12.103
          }
        }
      }
    }
  }
  JOINT lButtock
  {
    OFFSET 8.77824 4.35084 1.2192
    CHANNELS 3 Zrotation Xrotation Yrotation
    JOINT lThigh
    {
      OFFSET 0 -1.70687 -2.19456
      CHANNELS 3 Zrotation Xrotation Yrotation
      JOINT lShin
      {
        OFFSET 0 -36.8199 0.73152
        CHANNELS 3 Zrotation Xrotation Yrotation
        JOINT lFoot
        {
          OFFSET -0.73152 -45.1104 -5.12064
          CHANNELS 3 Zrotation Xrotation Yrotation
          End Site
          {
            OFFSET 1.1221 -3.69964 12.103
          }
        }
      }
    }
  }
}
MOTION
Frames:	9
Frame Time:	0.00833333
4.44933 85.0306 30.4839 4.77723 9.96604 -88.5361 12.0532 -2.72967 -0.987621 1.22232 -0.768013 -0.357201 -8.25099 6.51616 -5.67384 -0.295218 2.64901 -10.8584 -0 0 0 -0 0 0 -5.30905e-014 1.19212e-012 -3.87195e-014 73.4671 1.01107 5.90503 -26.9822 -26.2785 61.3247 -0.770263 -24.1078 -3.60573 8.49437e-011 -2.63793e-009 1.9656e-009 1.1048e-010 -4.55679e-009 3.39508e-009 8.49467e-011 -2.63793e-009 1.96558e-009 7.73091 5.47488 0.417314 8.49435e-011 -2.63794e-009 1.9656e-009 2.90554 0.965183 0.102902 8.4946e-011 -2.63793e-009 1.96559e-009 10.2786 0.731801 0.0259123 8.49422e-011 -2.63793e-009 1.9656e-009 2.22167 -0.733487 -0.20892 -5.31541e-014 1.19212e-012 -3.89183e-014 -82.5722 27.2638 -7.24549 27.8546 -29.8058 -66.9376 2.14109 -37.7737 6.25262 -1.21463e-009 -3.91274e-010 -1.82453e-009 -2.04096e-009 -6.80177e-010 -3.18242e-009 -1.21464e-009 -3.91272e-010 -1.82453e-009 -7.73091 5.47488 -0.417314 -1.21463e-009 -3.91274e-010 -1.82453e-009 -2.90554 0.965183 -0.102902 -1.21464e-009 -3.91273e-010 -1.82454e-009 -10.2786 0.731801 -0.0259123 -1.21463e-009 -3.91272e-010 -1.82455e-009 -2.22167 -0.733487 0.20892 -2.03217e-016 0 -3.88251e-019 14.469 -13.8446 2.92573 -0.0275676 16.7506 0.129611 -2.00068 -4.08979 -12.8523 2.03217e-016 0 3.88251e-019 18.4262 -31.7818 5.07333 1.29417 62.9881 -1.69685 0.43791 3.82641 0.396782 
3.61479 85.0673 30.3507 4.8651 10.0407 -88.7513 12.1162 -2.72431 -0.646906 1.07781 -0.802996 -0.264707 -8.32187 6.66907 -5.80706 -0.00723827 2.47087 -11.1186 -0 0 0 -0 0 0 -3.3383e-014 1.70709e-012 -5.63127e-014 73.662 1.47617 5.97413 -26.99 -26.3044 61.3658 -0.77035 -24.1091 -3.60595 2.05604e-010 -1.32154e-009 1.02962e-009 3.35127e-010 -2.28704e-009 1.78154e-009 2.05606e-010 -1.32154e-009 1.02961e-009 7.73091 5.47488 0.417314 2.05604e-010 -1.32154e-009 1.02962e-009 2.90554 0.965183 0.102902 2.05606e-010 -1.32154e-009 1.02961e-009 10.2786 0.731801 0.0259123 2.05602e-010 -1.32154e-009 1.02962e-009 2.22167 -0.733487 -0.20892 -3.34547e-014 1.7071e-012 -5.65348e-014 -82.4482 26.9405 -6.82227 27.8864 -29.9732 -67.2052 2.11776 -37.6048 6.21448 -4.82943e-010 -1.925e-010 -9.28132e-010 -8.06006e-010 -3.34011e-010 -1.61507e-009 -4.82949e-010 -1.92499e-010 -9.28127e-010 -7.73091 5.47488 -0.417314 -4.82943e-010 -1.925e-010 -9.28132e-010 -2.90554 0.965183 -0.102902 -4.82953e-010 -1.92499e-010 -9.28136e-010 -10.2786 0.731801 -0.0259123 -4.8294e-010 -1.92499e-010 -9.28146e-010 -2.22167 -0.733487 0.20892 -2.03217e-016 0 -3.88251e-019 14.6762 -13.0863 3.01388 -0.0247827 16.3497 0.150164 -2.05799 -4.45097 -12.7702 2.03217e-016 0 3.88251e-019 18.7551 -32.6581 5.47338 1.23315 62.2205 -1.63954 0.467619 2.84653 0.709513 
2.78744 85.0874 30.2216 4.96996 10.1054 -88.9792 12.171 -2.71863 -0.306407 0.928144 -0.843043 -0.172869 -8.39178 6.80105 -5.93833 0.264101 2.28186 -11.3692 -0 0 0 -0 0 0 7.59273e-015 2.12132e-012 -5.53118e-014 73.8329 1.94937 6.06804 -26.9939 -26.3175 61.3867 -0.766675 -24.0566 -3.59705 2.27356e-010 -1.84861e-010 2.03228e-010 3.87488e-010 -3.2477e-010 3.55165e-010 2.27356e-010 -1.84858e-010 2.03215e-010 7.73091 5.47488 0.417314 2.27354e-010 -1.84863e-010 2.03225e-010 2.90554 0.965183 0.102902 2.27357e-010 -1.8486e-010 2.03219e-010 10.2786 0.731801 0.0259123 2.27352e-010 -1.84857e-010 2.03222e-010 2.22167 -0.733487 -0.20892 7.51535e-015 2.12133e-012 -5.55603e-014 -82.311 26.6221 -6.42102 27.9166 -30.1366 -67.4668 2.09221 -37.4186 6.17259 6.37749e-011 -1.99421e-011 -1.73738e-010 1.14831e-010 -3.38634e-011 -2.98295e-010 6.37697e-011 -1.99433e-011 -1.73731e-010 -7.73091 5.47488 -0.417314 6.37748e-011 -1.99419e-011 -1.73738e-010 -2.90554 0.965183 -0.102902 6.37639e-011 -1.99418e-011 -1.7374e-010 -10.2786 0.731801 -0.0259123 6.37765e-011 -1.99413e-011 -1.73751e-010 -2.22167 -0.733487 0.20892 -2.03217e-016 0 -3.88251e-019 14.8708 -12.3771 3.11036 -0.0220576 15.9935 0.170549 -2.11885 -4.80701 -12.6992 2.03217e-016 0 3.88251e-019 19.0786 -33.4797 5.86585 1.16533 61.3075 -1.57512 0.509575 1.9319 1.07267 
1.96872 85.0991 30.0968 5.09377 10.164 -89.2223 12.2245 -2.71052 0.0384599 0.770952 -0.890773 -0.0805601 -8.46277 6.90668 -6.06987 0.522827 2.08429 -11.6135 -0 0 0 -0 0 0 9.72917e-014 2.58638e-012 -2.29798e-014 73.9769 2.43135 6.18864 -26.9939 -26.3173 61.3865 -0.75848 -23.9375 -3.57696 7.77342e-011 8.47035e-010 -5.73328e-010 1.43868e-010 1.46171e-009 -9.88732e-010 7.77342e-011 8.47037e-010 -5.7334e-010 7.73091 5.47488 0.417314 7.77331e-011 8.47033e-010 -5.73329e-010 2.90554 0.965183 0.102902 7.77354e-011 8.47036e-010 -5.73335e-010 10.2786 0.731801 0.0259123 7.77292e-011 8.47039e-010 -5.73332e-010 2.22167 -0.733487 -0.20892 9.72111e-014 2.58639e-012 -2.32632e-014 -82.1548 26.3152 -6.04535 27.9457 -30.2978 -67.7239 2.06369 -37.2083 6.12557 3.77241e-010 1.33462e-010 4.52886e-010 6.38458e-010 2.32298e-010 7.90767e-010 3.77236e-010 1.3346e-010 4.52895e-010 -7.73091 5.47488 -0.417314 3.77241e-010 1.33465e-010 4.52889e-010 -2.90554 0.965183 -0.102902 3.7723e-010 1.33461e-010 4.52886e-010 -10.2786 0.731801 -0.0259123 3.77243e-010 1.33465e-010 4.52878e-010 -2.22167 -0.733487 0.20892 -2.03217e-016 0 -3.88251e-019 15.0606 -11.7245 3.21861 -0.0194027 15.6902 0.191322 -2.18411 -5.15829 -12.6409 2.03217e-016 0 3.88251e-019 19.4079 -34.2543 6.26545 1.09295 60.2558 -1.50614 0.566219 1.0756 1.49354 
1.15862 85.1038 29.9778 5.23277 10.2155 -89.4788 12.2767 -2.70019 0.387002 0.605623 -0.945394 0.0120878 -8.53535 6.99539 -6.20246 0.773681 1.87184 -11.8545 -0 0 0 -0 0 0 2.29844e-013 3.03055e-012 3.11843e-014 74.0939 2.9226 6.33548 -26.9902 -26.305 61.3672 -0.747479 -23.7754 -3.54968 -1.98032e-010 2.0105e-009 -1.44543e-009 -3.15128e-010 3.47935e-009 -2.50024e-009 -1.98032e-010 2.01051e-009 -1.44544e-009 7.73091 5.47488 0.417314 -1.98033e-010 2.0105e-009 -1.44543e-009 2.90554 0.965183 0.102902 -1.98031e-010 2.0105e-009 -1.44544e-009 10.2786 0.731801 0.0259123 -1.98038e-010 2.01051e-009 -1.44543e-009 2.22167 -0.733487 -0.20892 2.29758e-013 3.03055e-012 3.08551e-014 -81.9766 26.0174 -5.69314 27.974 -30.4591 -67.9808 2.03369 -36.9844 6.07583 5.96977e-010 2.90397e-010 1.09878e-009 1.00086e-009 5.04265e-010 1.90983e-009 5.96971e-010 2.90396e-010 1.09879e-009 -7.73091 5.47488 -0.417314 5.96975e-010 2.90405e-010 1.09879e-009 -2.90554 0.965183 -0.102902 5.96966e-010 2.90397e-010 1.09878e-009 -10.2786 0.731801 -0.0259123 5.96979e-010 2.90405e-010 1.09878e-009 -2.22167 -0.733487 0.20892 -2.03217e-016 0 -3.88251e-019 15.2442 -11.1183 3.33537 -0.0169758 15.4306 0.212769 -2.25349 -5.50716 -12.5923 2.03217e-016 0 3.88251e-019 19.7363 -34.9804 6.66404 1.017 59.0605 -1.43365 0.638456 0.265088 1.9618 
0.358243 85.095 29.8676 5.38499 10.2485 -89.7428 12.3119 -2.69219 0.729425 0.438072 -1.00161 0.102635 -8.6051 7.07237 -6.33041 1.00378 1.64419 -12.083 -0 0 0 -0 0 0 3.47878e-013 3.16657e-012 8.56467e-014 74.1877 3.42089 6.50493 -26.9829 -26.2808 61.3287 -0.734413 -23.5811 -3.51707 -4.70822e-010 2.9597e-009 -2.16963e-009 -7.7164e-010 5.12664e-009 -3.75622e-009 -4.70822e-010 2.9597e-009 -2.16964e-009 7.73091 5.47488 0.417314 -4.70823e-010 2.9597e-009 -2.16962e-009 2.90554 0.965183 0.102902 -4.70821e-010 2.9597e-009 -2.16963e-009 10.2786 0.731801 0.0259123 -4.7083e-010 2.9597e-009 -2.16962e-009 2.22167 -0.733487 -0.20892 3.47789e-013 3.16657e-012 8.52747e-014 -81.7938 25.7168 -5.35674 28.0006 -30.6154 -68.2306 2.00316 -36.7538 6.02492 7.26977e-010 4.17958e-010 1.62163e-009 1.21199e-009 7.25119e-010 2.81415e-009 7.26971e-010 4.17958e-010 1.62165e-009 -7.73091 5.47488 -0.417314 7.26974e-010 4.1797e-010 1.62164e-009 -2.90554 0.965183 -0.102902 7.26966e-010 4.17957e-010 1.62164e-009 -10.2786 0.731801 -0.0259123 7.26979e-010 4.17969e-010 1.62164e-009 -2.22167 -0.733487 0.20892 -2.03217e-016 0 -3.88251e-019 15.4049 -10.5493 3.45512 -0.0148352 15.203 0.233477 -2.3261 -5.85078 -12.5523 2.03217e-016 0 3.88251e-019 20.0365 -35.6426 7.03067 0.938287 57.7104 -1.35741 0.723937 -0.47421 2.46955 
-0.434128 85.0769 29.767 5.54823 10.2521 -90.0072 12.3144 -2.6911 1.05594 0.274171 -1.05412 0.188642 -8.66758 7.1428 -6.44805 1.20041 1.40098 -12.2897 -0 0 0 -0 0 0 3.94024e-013 2.7072e-012 1.18873e-013 74.2621 3.92396 6.69338 -26.9721 -26.245 61.2712 -0.719994 -23.3655 -3.48097 -6.11516e-010 3.34878e-009 -2.50246e-009 -1.00781e-009 5.80209e-009 -4.33353e-009 -6.11515e-010 3.34878e-009 -2.50247e-009 7.73091 5.47488 0.417314 -6.11516e-010 3.34877e-009 -2.50245e-009 2.90554 0.965183 0.102902 -6.11514e-010 3.34878e-009 -2.50246e-009 10.2786 0.731801 0.0259123 -6.11524e-010 3.34878e-009 -2.50245e-009 2.22167 -0.733487 -0.20892 3.93935e-013 2.7072e-012 1.18476e-013 -81.6236 25.4011 -5.02874 28.0248 -30.762 -68.4662 1.97298 -36.5233 5.97434 7.71235e-010 4.83238e-010 1.87914e-009 1.28184e-009 8.37943e-010 3.25901e-009 7.71229e-010 4.83238e-010 1.87915e-009 -7.73091 5.47488 -0.417314 7.71232e-010 4.8325e-010 1.87914e-009 -2.90554 0.965183 -0.102902 7.71225e-010 4.83237e-010 1.87914e-009 -10.2786 0.731801 -0.0259123 7.71237e-010 4.83251e-010 1.87914e-009 -2.22167 -0.733487 0.20892 -2.03217e-016 0 -3.88251e-019 15.526 -10.0081 3.57241 -0.0130442 14.996 0.25203 -2.40105 -6.18631 -12.5197 2.03217e-016 0 3.88251e-019 20.2788 -36.2258 7.33302 0.857893 56.1941 -1.2774 0.818737 -1.11691 3.00878 
-1.2184 85.052 29.6768 5.7235 10.2205 -90.2688 12.278 -2.69493 1.36648 0.113445 -1.1044 0.270108 -8.7162 7.20679 -6.55476 1.35256 1.13265 -12.4736 -0 0 0 -0 0 0 3.32295e-013 1.50897e-012 1.19264e-013 74.3151 4.42612 6.90685 -26.9572 -26.1959 61.1926 -0.702997 -23.1093 -3.43819 -5.53124e-010 2.81894e-009 -2.17105e-009 -9.1302e-010 4.8835e-009 -3.75951e-009 -5.53124e-010 2.81894e-009 -2.17106e-009 7.73091 5.47488 0.417314 -5.53125e-010 2.81893e-009 -2.17104e-009 2.90554 0.965183 0.102902 -5.53122e-010 2.81894e-009 -2.17105e-009 10.2786 0.731801 0.0259123 -5.53131e-010 2.81894e-009 -2.17104e-009 2.22167 -0.733487 -0.20892 3.32216e-013 1.50897e-012 1.18864e-013 -81.4609 25.0642 -4.7129 28.0467 -30.8988 -68.6859 1.94388 -36.2984 5.9253 6.42038e-010 4.07591e-010 1.66069e-009 1.06446e-009 7.06219e-010 2.87907e-009 6.42032e-010 4.07591e-010 1.6607e-009 -7.73091 5.47488 -0.417314 6.42035e-010 4.07598e-010 1.66069e-009 -2.90554 0.965183 -0.102902 6.42029e-010 4.0759e-010 1.6607e-009 -10.2786 0.731801 -0.0259123 6.4204e-010 4.07602e-010 1.6607e-009 -2.22167 -0.733487 0.20892 -2.03217e-016 0 -3.88251e-019 15.6017 -9.50438 3.68775 -0.0115866 14.8207 0.268965 -2.47954 -6.51442 -12.4965 2.03217e-016 0 3.88251e-019 20.4535 -36.7311 7.57989 0.778172 54.5088 -1.19603 0.923036 -1.65844 3.5923 
-1.99987 85.0198 29.5961 5.91094 10.1603 -90.5286 12.2119 -2.70233 1.66542 -0.0465799 -1.15432 0.348117 -8.75528 7.26202 -6.65323 1.46964 0.842555 -12.6392 -0 0 0 -0 0 0 2.00186e-013 -2.52617e-013 1.00256e-013 74.3445 4.93007 7.14511 -26.9382 -26.1336 61.0936 -0.683796 -22.814 -3.38913 -3.75364e-010 1.64349e-009 -1.37456e-009 -6.2098e-010 2.84561e-009 -2.37978e-009 -3.75363e-010 1.64349e-009 -1.37457e-009 7.73091 5.47488 0.417314 -3.75365e-010 1.64349e-009 -1.37456e-009 2.90554 0.965183 0.102902 -3.75361e-010 1.64349e-009 -1.37456e-009 10.2786 0.731801 0.0259123 -3.75368e-010 1.64349e-009 -1.37456e-009 2.22167 -0.733487 -0.20892 2.00123e-013 -2.52617e-013 9.98676e-014 -81.2999 24.7139 -4.41124 28.0671 -31.0283 -68.893 1.91522 -36.0743 5.87671 3.66848e-010 2.31857e-010 1.09975e-009 6.04067e-010 4.0075e-010 1.90488e-009 3.66843e-010 2.31858e-010 1.09975e-009 -7.73091 5.47488 -0.417314 3.66845e-010 2.31857e-010 1.09972e-009 -2.90554 0.965183 -0.102902 3.6684e-010 2.31858e-010 1.09975e-009 -10.2786 0.731801 -0.0259123 3.6685e-010 2.31866e-010 1.09974e-009 -2.22167 -0.733487 0.20892 -2.03217e-016 0 -3.88251e-019 15.6415 -9.03896 3.80341 -0.0105175 14.6785 0.28475 -2.56185 -6.83608 -12.4826 2.03217e-016 0 3.88251e-019 20.5715 -37.1657 7.77919 0.700501 52.6605 -1.11494 1.03626 -2.11141 4.21945 
